<svg xmlns="http://www.w3.org/2000/svg" xmlns:xlink="http://www.w3.org/1999/xlink" width="500" zoomAndPan="magnify" viewBox="0 0 375 86.249997" height="115" preserveAspectRatio="xMidYMid meet" version="1.0"><defs><g/><clipPath id="80094c46f4"><path d="M 62.898438 18.054688 L 81.09375 18.054688 L 81.09375 35.628906 L 62.898438 35.628906 Z M 62.898438 18.054688 " clip-rule="nonzero"/></clipPath><clipPath id="409573b2db"><path d="M 71.992188 18.054688 C 66.96875 18.054688 62.898438 21.988281 62.898438 26.84375 C 62.898438 31.695312 66.96875 35.628906 71.992188 35.628906 C 77.011719 35.628906 81.082031 31.695312 81.082031 26.84375 C 81.082031 21.988281 77.011719 18.054688 71.992188 18.054688 Z M 71.992188 18.054688 " clip-rule="nonzero"/></clipPath><clipPath id="b934eb6b08"><path d="M 30.785156 9.027344 L 58.324219 9.027344 L 58.324219 35.628906 L 30.785156 35.628906 Z M 30.785156 9.027344 " clip-rule="nonzero"/></clipPath><clipPath id="f1764f9d91"><path d="M 44.546875 9.027344 C 36.945312 9.027344 30.785156 14.980469 30.785156 22.328125 C 30.785156 29.675781 36.945312 35.628906 44.546875 35.628906 C 52.144531 35.628906 58.304688 29.675781 58.304688 22.328125 C 58.304688 14.980469 52.144531 9.027344 44.546875 9.027344 Z M 44.546875 9.027344 " clip-rule="nonzero"/></clipPath><clipPath id="be477dd2a1"><path d="M 8.136719 18.054688 L 26.332031 18.054688 L 26.332031 35.628906 L 8.136719 35.628906 Z M 8.136719 18.054688 " clip-rule="nonzero"/></clipPath><clipPath id="e7c1bf33c0"><path d="M 17.230469 18.054688 C 12.210938 18.054688 8.136719 21.988281 8.136719 26.84375 C 8.136719 31.695312 12.210938 35.628906 17.230469 35.628906 C 22.253906 35.628906 26.324219 31.695312 26.324219 26.84375 C 26.324219 21.988281 22.253906 18.054688 17.230469 18.054688 Z M 17.230469 18.054688 " clip-rule="nonzero"/></clipPath></defs><g fill="#f3cd74" fill-opacity="1"><g transform="translate(10.224824, 67.224345)"><g><path d="M 68.375 -38.640625 L 54.609375 0 L 41.5 0 L 34.21875 -21.03125 L 26.671875 0 L 13.546875 0 L -0.21875 -38.640625 L 12.625 -38.640625 L 20.53125 -15.25 L 28.734375 -38.640625 L 40.28125 -38.640625 L 48.265625 -15.046875 L 56.46875 -38.640625 Z M 68.375 -38.640625 "/></g></g></g><g fill="#f3cd74" fill-opacity="1"><g transform="translate(79.871715, 67.224345)"><g><path d="M 20.8125 -39.28125 C 27.226562 -39.28125 32.125 -37.816406 35.5 -34.890625 C 38.875 -31.972656 40.5625 -27.492188 40.5625 -21.453125 L 40.5625 0 L 27.953125 0 L 27.953125 -4.984375 C 26.003906 -1.234375 22.203125 0.640625 16.546875 0.640625 C 13.546875 0.640625 10.953125 0.117188 8.765625 -0.921875 C 6.578125 -1.972656 4.925781 -3.390625 3.8125 -5.171875 C 2.695312 -6.953125 2.140625 -8.984375 2.140625 -11.265625 C 2.140625 -14.921875 3.539062 -17.757812 6.34375 -19.78125 C 9.144531 -21.800781 13.472656 -22.8125 19.328125 -22.8125 L 27.015625 -22.8125 C 26.785156 -26.90625 24.054688 -28.953125 18.828125 -28.953125 C 16.972656 -28.953125 15.09375 -28.65625 13.1875 -28.0625 C 11.289062 -27.46875 9.675781 -26.644531 8.34375 -25.59375 L 3.78125 -34.796875 C 5.914062 -36.222656 8.515625 -37.328125 11.578125 -38.109375 C 14.648438 -38.890625 17.726562 -39.28125 20.8125 -39.28125 Z M 20.3125 -7.90625 C 21.882812 -7.90625 23.265625 -8.285156 24.453125 -9.046875 C 25.640625 -9.816406 26.492188 -10.9375 27.015625 -12.40625 L 27.015625 -15.75 L 21.171875 -15.75 C 17.222656 -15.75 15.25 -14.441406 15.25 -11.828125 C 15.25 -10.640625 15.703125 -9.6875 16.609375 -8.96875 C 17.515625 -8.257812 18.75 -7.90625 20.3125 -7.90625 Z M 20.3125 -7.90625 "/></g></g></g><g fill="#f3cd74" fill-opacity="1"><g transform="translate(126.136675, 67.224345)"><g><path d="M 17.25 -34.015625 C 18.632812 -35.765625 20.429688 -37.078125 22.640625 -37.953125 C 24.847656 -38.835938 27.378906 -39.28125 30.234375 -39.28125 L 30.234375 -27.09375 C 28.992188 -27.238281 27.972656 -27.3125 27.171875 -27.3125 C 24.265625 -27.3125 21.988281 -26.523438 20.34375 -24.953125 C 18.707031 -23.378906 17.890625 -20.976562 17.890625 -17.75 L 17.890625 0 L 4.34375 0 L 4.34375 -38.640625 L 17.25 -38.640625 Z M 17.25 -34.015625 "/></g></g></g><g fill="#374440" fill-opacity="1"><g transform="translate(163.5662, 67.224345)"><g><path d="M 17.25 -34.015625 C 18.632812 -35.765625 20.429688 -37.078125 22.640625 -37.953125 C 24.847656 -38.835938 27.378906 -39.28125 30.234375 -39.28125 L 30.234375 -27.09375 C 28.992188 -27.238281 27.972656 -27.3125 27.171875 -27.3125 C 24.265625 -27.3125 21.988281 -26.523438 20.34375 -24.953125 C 18.707031 -23.378906 17.890625 -20.976562 17.890625 -17.75 L 17.890625 0 L 4.34375 0 L 4.34375 -38.640625 L 17.25 -38.640625 Z M 17.25 -34.015625 "/></g></g></g><g fill="#374440" fill-opacity="1"><g transform="translate(196.64318, 67.224345)"><g><path d="M 23.734375 0.640625 C 19.597656 0.640625 15.867188 -0.210938 12.546875 -1.921875 C 9.222656 -3.628906 6.617188 -6.003906 4.734375 -9.046875 C 2.859375 -12.097656 1.921875 -15.546875 1.921875 -19.390625 C 1.921875 -23.191406 2.859375 -26.613281 4.734375 -29.65625 C 6.617188 -32.695312 9.210938 -35.0625 12.515625 -36.75 C 15.816406 -38.4375 19.554688 -39.28125 23.734375 -39.28125 C 27.921875 -39.28125 31.675781 -38.4375 35 -36.75 C 38.332031 -35.0625 40.925781 -32.707031 42.78125 -29.6875 C 44.632812 -26.675781 45.5625 -23.242188 45.5625 -19.390625 C 45.5625 -15.546875 44.632812 -12.097656 42.78125 -9.046875 C 40.925781 -6.003906 38.332031 -3.628906 35 -1.921875 C 31.675781 -0.210938 27.921875 0.640625 23.734375 0.640625 Z M 23.734375 -10.125 C 26.117188 -10.125 28.070312 -10.941406 29.59375 -12.578125 C 31.113281 -14.222656 31.875 -16.492188 31.875 -19.390625 C 31.875 -22.242188 31.113281 -24.476562 29.59375 -26.09375 C 28.070312 -27.707031 26.117188 -28.515625 23.734375 -28.515625 C 21.359375 -28.515625 19.410156 -27.707031 17.890625 -26.09375 C 16.367188 -24.476562 15.609375 -22.242188 15.609375 -19.390625 C 15.609375 -16.492188 16.367188 -14.222656 17.890625 -12.578125 C 19.410156 -10.941406 21.359375 -10.125 23.734375 -10.125 Z M 23.734375 -10.125 "/></g></g></g><g fill="#374440" fill-opacity="1"><g transform="translate(245.617021, 67.224345)"><g><path d="M 23.734375 0.640625 C 19.597656 0.640625 15.867188 -0.210938 12.546875 -1.921875 C 9.222656 -3.628906 6.617188 -6.003906 4.734375 -9.046875 C 2.859375 -12.097656 1.921875 -15.546875 1.921875 -19.390625 C 1.921875 -23.191406 2.859375 -26.613281 4.734375 -29.65625 C 6.617188 -32.695312 9.210938 -35.0625 12.515625 -36.75 C 15.816406 -38.4375 19.554688 -39.28125 23.734375 -39.28125 C 27.921875 -39.28125 31.675781 -38.4375 35 -36.75 C 38.332031 -35.0625 40.925781 -32.707031 42.78125 -29.6875 C 44.632812 -26.675781 45.5625 -23.242188 45.5625 -19.390625 C 45.5625 -15.546875 44.632812 -12.097656 42.78125 -9.046875 C 40.925781 -6.003906 38.332031 -3.628906 35 -1.921875 C 31.675781 -0.210938 27.921875 0.640625 23.734375 0.640625 Z M 23.734375 -10.125 C 26.117188 -10.125 28.070312 -10.941406 29.59375 -12.578125 C 31.113281 -14.222656 31.875 -16.492188 31.875 -19.390625 C 31.875 -22.242188 31.113281 -24.476562 29.59375 -26.09375 C 28.070312 -27.707031 26.117188 -28.515625 23.734375 -28.515625 C 21.359375 -28.515625 19.410156 -27.707031 17.890625 -26.09375 C 16.367188 -24.476562 15.609375 -22.242188 15.609375 -19.390625 C 15.609375 -16.492188 16.367188 -14.222656 17.890625 -12.578125 C 19.410156 -10.941406 21.359375 -10.125 23.734375 -10.125 Z M 23.734375 -10.125 "/></g></g></g><g fill="#374440" fill-opacity="1"><g transform="translate(294.590862, 67.224345)"><g><path d="M 54.6875 -39.28125 C 59.4375 -39.28125 63.222656 -37.851562 66.046875 -35 C 68.878906 -32.15625 70.296875 -27.859375 70.296875 -22.109375 L 70.296875 0 L 56.75 0 L 56.75 -19.890625 C 56.75 -22.597656 56.238281 -24.59375 55.21875 -25.875 C 54.195312 -27.164062 52.757812 -27.8125 50.90625 -27.8125 C 48.863281 -27.8125 47.222656 -27.097656 45.984375 -25.671875 C 44.742188 -24.242188 44.125 -22.078125 44.125 -19.171875 L 44.125 0 L 30.59375 0 L 30.59375 -19.890625 C 30.59375 -25.171875 28.640625 -27.8125 24.734375 -27.8125 C 22.648438 -27.8125 20.988281 -27.097656 19.75 -25.671875 C 18.507812 -24.242188 17.890625 -22.078125 17.890625 -19.171875 L 17.890625 0 L 4.34375 0 L 4.34375 -38.640625 L 17.25 -38.640625 L 17.25 -34.578125 C 18.675781 -36.148438 20.375 -37.328125 22.34375 -38.109375 C 24.320312 -38.890625 26.472656 -39.28125 28.796875 -39.28125 C 31.515625 -39.28125 33.941406 -38.78125 36.078125 -37.78125 C 38.210938 -36.789062 39.945312 -35.269531 41.28125 -33.21875 C 42.800781 -35.164062 44.722656 -36.660156 47.046875 -37.703125 C 49.378906 -38.753906 51.925781 -39.28125 54.6875 -39.28125 Z M 54.6875 -39.28125 "/></g></g></g><g clip-path="url(#80094c46f4)"><g clip-path="url(#409573b2db)"><path fill="#f3cd74" d="M 62.898438 18.054688 L 81.09375 18.054688 L 81.09375 35.628906 L 62.898438 35.628906 Z M 62.898438 18.054688 " fill-opacity="1" fill-rule="nonzero"/></g></g><g clip-path="url(#b934eb6b08)"><g clip-path="url(#f1764f9d91)"><path fill="#f3cd74" d="M 30.785156 9.027344 L 58.324219 9.027344 L 58.324219 35.628906 L 30.785156 35.628906 Z M 30.785156 9.027344 " fill-opacity="1" fill-rule="nonzero"/></g></g><g clip-path="url(#be477dd2a1)"><g clip-path="url(#e7c1bf33c0)"><path fill="#f3cd74" d="M 8.136719 18.054688 L 26.332031 18.054688 L 26.332031 35.628906 L 8.136719 35.628906 Z M 8.136719 18.054688 " fill-opacity="1" fill-rule="nonzero"/></g></g></svg>